{"title":"Special 26 Chabbis 2013 Hindi DVDRiP XViD ESubs-ANON","uid":8251006,"size":744413525,"categoryP":"video","categoryS":"movies","magnet":"?xt=urn:btih:1f9f377094564897f6d3d69f5acb66d3b13ab52d&amp;dn=Special+26+Chabbis+2013+Hindi+DVDRiP+XViD+ESubs-ANON&amp;tr=udp%3A%2F%2Ftracker.openbittorrent.com%3A80&amp;tr=udp%3A%2F%2Fopen.demonii.com%3A1337&amp;tr=udp%3A%2F%2Ftracker.coppersurfer.tk%3A6969&amp;tr=udp%3A%2F%2Fexodus.desync.com%3A6969","seeders":5,"leechers":2,"uploader":"HeroMaster","files":-1,"time":1363167189,"description":"Special 26 Chabbis 2013 Hindi DVDRiP XViD ESubs-ANON\n\n\nIMDB: http://www.imdb.com/title/tt2377938/\n\n\nInformation:\n\n\nGeneral\nComplete name : s26.2013.1cd.xvid.esubs-anon.avi\nFormat : AVI\nFormat/Info : Audio Video Interleave\nFile size : 695 MiB\nDuration : 2h 23mn\nOverall bit rate : 677 Kbps\n\nVideo\nID : 0\nFormat : MPEG-4 Visual\nFormat profile : Advanced Simple@L5\nFormat settings, BVOP : 2\nFormat settings, QPel : Yes\nFormat settings, GMC : No warppoints\nFormat settings, Matrix : Default (H.263)\nCodec ID : XVID\nCodec ID/Hint : XviD\nDuration : 2h 23mn\nBit rate : 575 Kbps\nWidth : 608 pixels\nHeight : 256 pixels\nDisplay aspect ratio : 2.40:1\nFrame rate : 23.976 fps\nColor space : YUV\nChroma subsampling : 4:2:0\nBit depth : 8 bits\nScan type : Progressive\nCompression mode : Lossy\nBits/(Pixel*Frame) : 0.154\nStream size : 590 MiB (85%)\nWriting library : XviD 1.2.1 (UTC 2008-12-04)\n\nAudio\nID : 1\nFormat : MPEG Audio\nFormat version : Version 1\nFormat profile : Layer 3\nMode : Joint stereo\nMode extension : MS Stereo\nCodec ID : 55\nCodec ID/Hint : MP3\nDuration : 2h 23mn\nBit rate mode : Constant\nBit rate : 96.0 Kbps\nChannel(s) : 2 channels\nSampling rate : 32.0 KHz\nCompression mode : Lossy\nStream size : 98.6 MiB (14%)\n\n\nPoster:\n\n &lt;a href=&quot;\nhttp://i.imgur.com/1qOhwnK.jpg&quot; rel=&quot;nofollow&quot; target=&quot;_NEW&quot;&gt;\nhttp://i.imgur.com/1qOhwnK.jpg&lt;/a&gt;\n\n\nScreenshots:\n\n &lt;a href=&quot;\nhttp://i.imgur.com/Pn6TdU5.png&quot; rel=&quot;nofollow&quot; target=&quot;_NEW&quot;&gt;\nhttp://i.imgur.com/Pn6TdU5.png&lt;/a&gt;\n\n &lt;a href=&quot;\nhttp://i.imgur.com/bvmQW9T.png&quot; rel=&quot;nofollow&quot; target=&quot;_NEW&quot;&gt;\nhttp://i.imgur.com/bvmQW9T.png&lt;/a&gt;\n\n &lt;a href=&quot;\nhttp://i.imgur.com/KpCdsCB.png&quot; rel=&quot;nofollow&quot; target=&quot;_NEW&quot;&gt;\nhttp://i.imgur.com/KpCdsCB.png&lt;/a&gt;\n\n\nSEED AND ENJOY!","torrent":{"xt":"urn:btih:1f9f377094564897f6d3d69f5acb66d3b13ab52d","amp;dn":"Special+26+Chabbis+2013+Hindi+DVDRiP+XViD+ESubs-ANON","amp;tr":["udp%3A%2F%2Ftracker.openbittorrent.com%3A80","udp%3A%2F%2Fopen.demonii.com%3A1337","udp%3A%2F%2Ftracker.coppersurfer.tk%3A6969","udp%3A%2F%2Fexodus.desync.com%3A6969"],"infoHash":"1f9f377094564897f6d3d69f5acb66d3b13ab52d","infoHashBuffer":{"type":"Buffer","data":[31,159,55,112,148,86,72,151,246,211,214,159,90,203,102,211,177,58,181,45]},"announce":[],"urlList":[]}}